# xmcd
#
# Track frame offsets: 
#        150
#        12295
#        36135
#        55458
#        81418
#        109543
#        140743
#        157643
#        186270
#        208260
#        229890
#
# Disc length: 3892 seconds
#
# Revision: 3
# Processed by: cddbd v1.5.2PL0 Copyright (c) Steve Scherf et al.
# Submitted via: ExactAudioCopy v0.95a5
#
DISCID=940f320b
DTITLE=Maxwell - k-Maxwell's Urban Hang Suite
DYEAR=1996
DGENRE=R&B
TTITLE0=The Urban Theme
TTITLE1=Welcome
TTITLE2=Sumthin' Sumthin'
TTITLE3=Ascension (Don't Ever Wonder)
TTITLE4=Dancewitme
TTITLE5=Til The Cops Come Knockin'
TTITLE6=Whenever Wherever Whatever
TTITLE7=Lonely's The Only Company (I and II)
TTITLE8=Reunion
TTITLE9=Suitelady (The Proposal Jam)
TTITLE10=The Suite Theme
EXTD=
EXTT0=
EXTT1=
EXTT2=
EXTT3=
EXTT4=
EXTT5=
EXTT6=
EXTT7=
EXTT8=
EXTT9=
EXTT10=
PLAYORDER=
